<?xml version="1.0" encoding="UTF-8" standalone="no"?>
<svg
   xmlns:dc="http://purl.org/dc/elements/1.1/"
   xmlns:cc="http://creativecommons.org/ns#"
   xmlns:rdf="http://www.w3.org/1999/02/22-rdf-syntax-ns#"
   xmlns:svg="http://www.w3.org/2000/svg"
   xmlns="http://www.w3.org/2000/svg"
   xmlns:sodipodi="http://sodipodi.sourceforge.net/DTD/sodipodi-0.dtd"
   xmlns:inkscape="http://www.inkscape.org/namespaces/inkscape"
   width="105.0614mm"
   height="26.330467mm"
   viewBox="0 0 105.0614 26.330467"
   preserveAspectRatio="none"
   version="1.1"
   id="svg843"
   inkscape:version="1.0.1 (3bc2e813f5, 2020-09-07)"
   sodipodi:docname="bottom_nav.svg">
  <defs
     id="defs837" />
  <sodipodi:namedview
     id="base"
     pagecolor="#ffffff"
     bordercolor="#666666"
     borderopacity="1.0"
     inkscape:pageopacity="0.0"
     inkscape:pageshadow="2"
     inkscape:zoom="1.4"
     inkscape:cx="184.76538"
     inkscape:cy="55.32728"
     inkscape:document-units="mm"
     inkscape:current-layer="layer1"
     inkscape:document-rotation="0"
     showgrid="false"
     inkscape:snap-global="false"
     inkscape:window-width="1481"
     inkscape:window-height="1008"
     inkscape:window-x="76"
     inkscape:window-y="0"
     inkscape:window-maximized="0" />
  <metadata
     id="metadata840">
    <rdf:RDF>
      <cc:Work
         rdf:about="">
        <dc:format>image/svg+xml</dc:format>
        <dc:type
           rdf:resource="http://purl.org/dc/dcmitype/StillImage" />
        <dc:title></dc:title>
      </cc:Work>
    </rdf:RDF>
  </metadata>
  <g
     inkscape:label="Ebene 1"
     inkscape:groupmode="layer"
     id="layer1"
     transform="translate(-47.189121,-103.78939)">
    <path
       style="fill:#452d79;fill-opacity:1;stroke:none;stroke-width:0;stroke-linecap:butt;stroke-linejoin:miter;stroke-miterlimit:4;stroke-dasharray:none;stroke-opacity:1"
       d="m 48.9873,130.11986 h 102.60388 c 0,0 0.66601,-7.26949 0.65929,-8.42515 -0.007,-1.15566 -0.3164,-7.5196 -3.09157,-11.33734 -2.77518,-3.81774 -5.05007,-4.29354 -9.7611,-5.22453 -4.71103,-0.93098 -8.35722,-0.10069 -13.34462,-0.34223 -4.98737,-0.24155 -12.15659,-1.05685 -16.67617,-0.99821 -4.51958,0.0586 -17.441856,2.51417 -22.687362,2.59535 -5.245506,0.0812 -10.095233,-1.37149 -15.51273,-1.59714 -5.417498,-0.22564 -9.320987,0.25429 -12.604095,1.39749 -3.283107,1.1432 -7.310309,2.55954 -8.91982,4.3921 -1.609509,1.83256 -1.995723,5.04033 -2.410885,8.3849 -0.415162,3.34459 1.745182,11.15476 1.745182,11.15476 z"
       id="path1408"
       sodipodi:nodetypes="cczzzzzzzzzzc" />
    <path
       style="fill:#5c3c9f;fill-opacity:1;stroke:none;stroke-width:0;stroke-linecap:butt;stroke-linejoin:miter;stroke-miterlimit:4;stroke-dasharray:none;stroke-opacity:1"
       d="m 50,130 h 100 c 0,0 0.64911,-6.88159 0.64256,-7.97559 -0.007,-1.09399 -0.30837,-7.11835 -3.01312,-10.73238 -2.70475,-3.61403 -4.92191,-4.06444 -9.51338,-4.94575 -4.59147,-0.88131 -8.14513,-0.0953 -13.00595,-0.32397 -4.86081,-0.22866 -11.84809,-1.00046 -16.25297,-0.94494 -4.40488,0.0555 -16.999219,2.38 -22.111604,2.45685 -5.112386,0.0769 -9.839036,-1.29831 -15.119048,-1.51191 -5.280012,-0.2136 -9.084438,0.24072 -12.284227,1.32292 -3.199788,1.0822 -7.124788,2.42296 -8.693452,4.15774 -1.568664,1.73477 -1.945076,4.77138 -2.349702,7.93749 C 47.894481,122.60658 50,130 50,130 Z"
       id="path1406"
       sodipodi:nodetypes="cczzzzzzzzzzc" />
  </g>
</svg>
