<?xml version="1.0" encoding="UTF-8" standalone="no"?>
<svg
   xmlns:dc="http://purl.org/dc/elements/1.1/"
   xmlns:cc="http://creativecommons.org/ns#"
   xmlns:rdf="http://www.w3.org/1999/02/22-rdf-syntax-ns#"
   xmlns:svg="http://www.w3.org/2000/svg"
   xmlns="http://www.w3.org/2000/svg"
   xmlns:sodipodi="http://sodipodi.sourceforge.net/DTD/sodipodi-0.dtd"
   xmlns:inkscape="http://www.inkscape.org/namespaces/inkscape"
   width="101.1402mm"
   height="36.36657mm"
   viewBox="0 0 101.1402 36.36657"
   version="1.1"
   id="svg8"
   inkscape:version="1.0.1 (3bc2e813f5, 2020-09-07)"
   sodipodi:docname="dashboard_quests.svg">
  <defs
     id="defs2" />
  <sodipodi:namedview
     id="base"
     pagecolor="#ffffff"
     bordercolor="#666666"
     borderopacity="1.0"
     inkscape:pageopacity="0.0"
     inkscape:pageshadow="2"
     inkscape:zoom="0.98994949"
     inkscape:cx="168.69678"
     inkscape:cy="-149.12051"
     inkscape:document-units="mm"
     inkscape:current-layer="layer1"
     inkscape:document-rotation="0"
     showgrid="false"
     inkscape:snap-global="false"
     inkscape:window-width="1481"
     inkscape:window-height="1008"
     inkscape:window-x="228"
     inkscape:window-y="0"
     inkscape:window-maximized="0"
     inkscape:object-paths="true"
     inkscape:snap-intersection-paths="true"
     inkscape:snap-smooth-nodes="true"
     inkscape:snap-midpoints="true"
     inkscape:snap-object-midpoints="true"
     inkscape:snap-center="true"
     inkscape:snap-text-baseline="true"
     inkscape:snap-page="true"
     inkscape:snap-bbox="true"
     inkscape:bbox-paths="true"
     inkscape:bbox-nodes="true"
     inkscape:snap-bbox-edge-midpoints="true"
     inkscape:snap-bbox-midpoints="true" />
  <metadata
     id="metadata5">
    <rdf:RDF>
      <cc:Work
         rdf:about="">
        <dc:format>image/svg+xml</dc:format>
        <dc:type
           rdf:resource="http://purl.org/dc/dcmitype/StillImage" />
        <dc:title />
      </cc:Work>
    </rdf:RDF>
  </metadata>
  <g
     inkscape:label="Ebene 1"
     inkscape:groupmode="layer"
     id="layer1"
     transform="translate(-59.737063,-64.915681)">
    <path
       style="fill:#19a0ba;fill-opacity:1;stroke:none;stroke-width:0.280106px;stroke-linecap:butt;stroke-linejoin:miter;stroke-opacity:1"
       d="m 60.48035,87.362883 c 2.0045,6.627526 9.316062,11.27286 15.925447,13.336387 5.948756,1.85727 12.381671,-1.278245 18.616939,-1.715814 9.794504,-0.687342 20.688484,0.05715 31.049294,-0.549143 10.34331,-0.605268 20.18847,0.109329 27.85031,-0.635754 11.16751,-1.085996 7.61942,-25.818868 -1.7174,-27.747571 -8.02872,-1.658488 -20.98168,-1.519526 -30.62465,-1.156677 -9.44547,0.355415 -19.4942,-0.184443 -28.937827,-0.607617 -8.729183,-0.391162 -19.023012,-6.410583 -26.145141,-1.367267 -5.797225,4.105126 -8.073433,13.64413 -6.016972,20.443456 z"
       id="path847"
       sodipodi:nodetypes="aassssssaa" />
    <path
       style="fill:#2bc5e3;fill-opacity:1;stroke:none;stroke-width:0.264583px;stroke-linecap:butt;stroke-linejoin:miter;stroke-opacity:1"
       d="m 62.841801,87.002156 c 2.21351,6.00777 8.981793,10.005749 15.110702,11.857617 5.383577,1.626667 11.203182,-1.038355 16.819939,-1.322922 19.480118,-0.98694 43.584978,0.03485 58.500168,-1.331166 10.86981,-0.995518 6.08724,-25.725502 -4.82754,-25.618537 -16.67331,0.1634 -36.28456,-0.645092 -54.42858,-0.831546 -9.219447,-0.09474 -20.507942,-5.965159 -27.659416,-0.145915 -4.587773,3.733128 -5.560122,11.842469 -3.515273,17.392469 z"
       id="path833"
       sodipodi:nodetypes="aaassaaa" />
    <g
       id="g841"
       transform="matrix(1.4122956,0,0,1.4122956,-27.726354,-30.988172)">
      <g
         id="g845"
         transform="translate(7.4937098,-2.0072437)">
        <path
           style="fill:#137b8f;fill-opacity:1;stroke:none;stroke-width:0.264583px;stroke-linecap:butt;stroke-linejoin:miter;stroke-opacity:1"
           d="m 63.67419,83.321354 c 1.14573,1.403303 2.735811,2.744012 4.035332,3.640564 0.463327,0.319654 1.129211,-0.822868 1.605631,-0.523076 0.285265,0.179506 0.003,0.691545 0.133634,1.002261 0.350435,0.833788 1.075673,1.456786 1.670435,2.138157 0.776815,0.889934 1.292783,2.4735 2.472243,2.539063 0.805807,0.04479 1.729217,-0.742284 1.870887,-1.536803 0.131426,-0.737074 -0.689408,-1.336706 -1.135896,-1.937705 -0.996255,-1.341016 -2.297183,-2.426906 -3.407688,-3.674955 -0.399061,-0.448487 -0.780741,-0.912147 -1.169306,-1.369757 -1.329653,-1.565921 -2.692043,-3.10511 -3.976577,-4.70825 -0.848953,-1.059521 -1.667383,-2.14381 -2.463885,-3.243306 -0.573606,-0.791809 -1.666362,-2.41394 -1.666362,-2.41394 0,0 -0.495398,0.942526 -0.611145,2.215572 -0.101673,1.118252 -0.05804,2.711068 0.348018,3.979049 0.459414,1.43459 1.342007,2.726282 2.294679,3.893126 z"
           id="path834"
           sodipodi:nodetypes="asaaaaaaaaaacsaa" />
        <path
           style="fill:#86deef;fill-opacity:1;stroke:none;stroke-width:0.264583px;stroke-linecap:butt;stroke-linejoin:miter;stroke-opacity:1"
           d="m 64.224712,76.89083 c 0.309193,0.291562 0.187211,0.862912 0.07477,1.272749 -0.09303,0.339099 -0.572424,0.52291 -0.590588,0.87407 -0.02675,0.517173 0.740891,0.852369 0.732329,1.370163 -0.0068,0.409191 -0.552803,0.658444 -0.614211,1.063058 -0.09824,0.647318 0.246406,1.288347 0.43378,1.915693 0.101756,0.340687 0.171257,0.495706 0.373572,0.999121 l -0.416017,-0.42475 c -0.02351,0.03693 -0.02975,0.103383 -0.03822,0.156365 -0.03928,0.245474 0.19037,0.729183 -0.05781,0.743546 -0.276359,0.01599 -0.09041,-0.546941 -0.159459,-0.815012 -0.04646,-0.18035 -0.08161,-0.368512 -0.170975,-0.531907 -0.11976,-0.218965 -0.35252,-0.449621 -0.476574,-0.577468 -0.09323,0.0133 -0.125147,0.0962 -0.161214,0.163787 -0.129689,0.243021 0.108859,0.814557 -0.166553,0.809423 -0.384858,-0.0072 -0.104222,-0.763816 -0.19042,-1.138965 -0.0737,-0.320771 -0.14032,-0.648598 -0.278603,-0.947269 -0.08598,-0.185704 -0.237455,-0.33436 -0.337049,-0.513133 -0.160947,-0.288903 -0.236454,-0.540122 -0.418436,-0.899572 -0.131835,0.317076 -0.119848,0.386724 -0.145062,0.586545 -0.07013,0.555736 0.417155,1.675894 -0.01443,1.680368 -0.431584,0.0045 -0.324095,-1.120346 -0.354358,-1.697625 -0.04617,-0.880695 -0.125009,-1.773643 -0.181344,-2.66087 -0.02008,-0.316244 -0.04115,-0.632461 -0.05584,-0.949001 -0.01221,-0.263012 -0.02775,-0.526136 -0.02683,-0.78943 0.0013,-0.377493 0.01147,-0.755655 0.04633,-1.131537 0.0204,-0.219959 0.05039,-0.439519 0.09511,-0.655849 0.06224,-0.301082 0.141574,-0.599329 0.24038,-0.890466 0.07754,-0.228468 0.275652,-0.669257 0.275652,-0.669257 0,0 0.374365,0.553034 0.562599,0.828835 0.136915,0.200609 0.27375,0.40128 0.412272,0.600783 0.228691,0.329368 0.458096,0.65827 0.691491,0.984322 0.125373,0.175145 0.253138,0.348569 0.380759,0.522083 0.177345,0.241118 0.543213,0.7212 0.53495,0.7212 z"
           id="path836"
           sodipodi:nodetypes="aaaaaaccaaaacaaaaacazsaaaaaacaaaaca" />
      </g>
    </g>
  </g>
</svg>
