<?xml version="1.0" encoding="UTF-8" standalone="no"?>
<svg
   xmlns:dc="http://purl.org/dc/elements/1.1/"
   xmlns:cc="http://creativecommons.org/ns#"
   xmlns:rdf="http://www.w3.org/1999/02/22-rdf-syntax-ns#"
   xmlns:svg="http://www.w3.org/2000/svg"
   xmlns="http://www.w3.org/2000/svg"
   xmlns:sodipodi="http://sodipodi.sourceforge.net/DTD/sodipodi-0.dtd"
   xmlns:inkscape="http://www.inkscape.org/namespaces/inkscape"
   width="37.724998mm"
   height="37.585922mm"
   viewBox="0 0 37.724998 37.585922"
   version="1.1"
   id="svg8"
   inkscape:version="1.0.1 (3bc2e813f5, 2020-09-07)"
   sodipodi:docname="dashboard_home.svg">
  <defs
     id="defs2" />
  <sodipodi:namedview
     id="base"
     pagecolor="#ffffff"
     bordercolor="#666666"
     borderopacity="1.0"
     inkscape:pageopacity="0.0"
     inkscape:pageshadow="2"
     inkscape:zoom="0.35"
     inkscape:cx="500.60145"
     inkscape:cy="-487.91555"
     inkscape:document-units="mm"
     inkscape:current-layer="layer1"
     inkscape:document-rotation="0"
     showgrid="false"
     inkscape:snap-global="false"
     inkscape:window-width="1481"
     inkscape:window-height="1008"
     inkscape:window-x="228"
     inkscape:window-y="0"
     inkscape:window-maximized="0" />
  <metadata
     id="metadata5">
    <rdf:RDF>
      <cc:Work
         rdf:about="">
        <dc:format>image/svg+xml</dc:format>
        <dc:type
           rdf:resource="http://purl.org/dc/dcmitype/StillImage" />
        <dc:title />
      </cc:Work>
    </rdf:RDF>
  </metadata>
  <g
     inkscape:label="Ebene 1"
     inkscape:groupmode="layer"
     id="layer1"
     transform="translate(-44.125,-65.525)">
    <path
       style="fill:#19a0ba;fill-opacity:1;stroke:none;stroke-width:0.292988px;stroke-linecap:butt;stroke-linejoin:miter;stroke-opacity:1"
       d="m 45.390716,87.065069 c 1.226082,5.099429 2.7025,11.284752 7.19359,13.993541 5.221804,3.14954 12.74755,2.34404 18.293269,-0.19205 3.423216,-1.565446 5.60664,-5.196452 7.475536,-8.463911 1.816304,-3.17551 3.965168,-6.817169 3.406876,-10.432568 -0.761957,-4.934292 -4.609433,-9.350393 -8.728082,-12.17254 -4.479532,-3.069426 -10.406491,-4.901542 -15.773234,-4.073498 -4.595564,0.709057 -9.567726,3.332884 -11.827199,7.396965 -2.258549,4.062417 -1.127344,9.424812 -0.04077,13.944061 z"
       id="path835"
       sodipodi:nodetypes="aaaaaaaaa" />
    <path
       style="fill:#2bc5e3;fill-opacity:1;stroke:none;stroke-width:0.264583px;stroke-linecap:butt;stroke-linejoin:miter;stroke-opacity:1"
       d="m 46.210848,87.002155 c 1.086047,4.689901 3.179576,10.041221 7.362191,12.424578 5.035495,2.869347 12.28691,2.753077 17.386904,0 2.681736,-1.447655 3.459791,-5.023452 5.01653,-7.643371 1.735796,-2.921264 5.050688,-5.598004 4.810851,-8.987583 -0.330825,-4.675486 -4.5017,-8.61445 -8.315476,-11.339285 -4.293673,-3.067707 -9.895759,-5.522771 -15.111181,-4.71914 -4.051749,0.624324 -8.050606,3.474562 -10.091391,7.030071 -2.203117,3.838328 -2.056862,8.923163 -1.058428,13.23473 z"
       id="path833"
       sodipodi:nodetypes="aaaaaaaaa" />
    <path
       style="fill:#137b8f;fill-opacity:1;stroke:none;stroke-width:0.264583px;stroke-linecap:butt;stroke-linejoin:miter;stroke-opacity:1"
       d="m 59.688075,86.906564 c 0.245939,-0.444373 0.713737,-0.798136 1.202716,-0.935443 0.757106,-0.212599 1.658295,-0.117756 2.34398,0.267269 0.44285,0.248669 0.732771,0.737013 0.935443,1.202713 0.558164,1.282546 -0.231561,3.071722 0.668174,4.142678 0.39418,0.469193 1.128247,0.533299 1.737252,0.601359 1.00219,0.112 2.311584,0.396408 3.006782,-0.33409 0.753772,-0.792047 0.18504,-2.180766 0.200452,-3.274052 0.02858,-2.027693 -0.153153,-4.053038 -0.200454,-6.080381 -0.01896,-0.8128 0.227731,-1.668895 -0.03341,-2.438835 -0.223025,-0.657555 -0.7697,-1.163771 -1.244475,-1.670434 -0.857518,-0.915115 -1.916945,-1.617643 -2.864794,-2.438835 -0.789073,-0.683633 -1.474636,-1.501374 -2.349353,-2.07134 -0.400768,-0.261141 -0.82487,-0.617364 -1.302943,-0.601357 -0.418375,0.01401 -0.747974,0.378747 -1.102486,0.601357 -0.971081,0.609774 -1.909489,1.276748 -2.795587,2.004521 -0.754952,0.62006 -1.36954,1.223296 -2.138158,2.004528 -0.699332,0.710808 -1.324049,1.155232 -1.46999,2.338608 -0.08178,0.66315 0.0074,1.336389 0,2.004521 -0.02227,2.004893 -0.222267,4.010508 -0.133635,6.013564 0.05349,1.208932 -0.426023,2.724644 0.400907,3.608139 0.512658,0.547726 1.474041,0.509617 2.21557,0.395788 0.934897,-0.143513 2.118718,0.544775 2.515038,-1.313864 0.39632,-1.858638 -0.244284,-2.846085 0.408971,-4.026414 z"
       id="path834"
       sodipodi:nodetypes="aaaaaaaaaaaaaaaassaaaaza" />
  </g>
</svg>
