<?xml version="1.0" encoding="UTF-8" standalone="no"?>
<svg
   xmlns:dc="http://purl.org/dc/elements/1.1/"
   xmlns:cc="http://creativecommons.org/ns#"
   xmlns:rdf="http://www.w3.org/1999/02/22-rdf-syntax-ns#"
   xmlns:svg="http://www.w3.org/2000/svg"
   xmlns="http://www.w3.org/2000/svg"
   xmlns:sodipodi="http://sodipodi.sourceforge.net/DTD/sodipodi-0.dtd"
   xmlns:inkscape="http://www.inkscape.org/namespaces/inkscape"
   width="79.887009mm"
   height="20.140993mm"
   viewBox="0 0 79.887008 20.140993"
   preserveAspectRatio="none"
   version="1.1"
   id="svg8"
   sodipodi:docname="input_focus.svg"
   inkscape:version="1.0.1 (3bc2e813f5, 2020-09-07)">
  <defs
     id="defs2" />
  <sodipodi:namedview
     id="base"
     pagecolor="#ffffff"
     bordercolor="#666666"
     borderopacity="1.0"
     inkscape:pageopacity="0"
     inkscape:pageshadow="2"
     inkscape:zoom="1.979899"
     inkscape:cx="155.87037"
     inkscape:cy="50.859894"
     inkscape:document-units="mm"
     inkscape:current-layer="layer1"
     inkscape:document-rotation="0"
     showgrid="false"
     inkscape:snap-global="false"
     inkscape:window-width="1481"
     inkscape:window-height="1008"
     inkscape:window-x="38"
     inkscape:window-y="0"
     inkscape:window-maximized="0"
     inkscape:pagecheckerboard="true"
     fit-margin-top="0"
     fit-margin-left="0"
     fit-margin-right="0"
     fit-margin-bottom="0" />
  <metadata
     id="metadata5">
    <rdf:RDF>
      <cc:Work
         rdf:about="">
        <dc:format>image/svg+xml</dc:format>
        <dc:type
           rdf:resource="http://purl.org/dc/dcmitype/StillImage" />
        <dc:title></dc:title>
      </cc:Work>
    </rdf:RDF>
  </metadata>
  <g
     inkscape:label="Ebene 1"
     inkscape:groupmode="layer"
     id="layer1"
     transform="translate(5.6644431,-28.249875)">
    <path
       style="fill:#ff1dc3;fill-opacity:1;stroke:none;stroke-width:0;stroke-linecap:butt;stroke-linejoin:miter;stroke-miterlimit:4;stroke-dasharray:none;stroke-opacity:1"
       d="m 54.693961,29.815892 c 15.288852,1.41902 21.216241,6.163885 19.1212,11.950067 C 71.720119,47.552142 62.08444,48.365163 48.668346,48.041661 35.252251,47.718158 9.1462794,49.162149 2.9625897,47.782017 -3.2211015,46.401885 -6.716651,41.402564 -5.3818902,37.285505 -4.0471279,33.168446 6.2240171,30.602984 15.759441,29.062634 c 9.535426,-1.540352 23.645669,-0.665762 38.93452,0.753258 z"
       id="path835"
       sodipodi:nodetypes="zzzzzzz" />
    <path
       style="fill:#ffffff;fill-opacity:1;stroke:none;stroke-width:0;stroke-linecap:butt;stroke-linejoin:miter;stroke-miterlimit:4;stroke-dasharray:none;stroke-opacity:1"
       d="m 51.758781,31.152239 c 13.889963,1.25009 19.218112,2.486945 19.493577,8.761562 C 71.527821,46.188418 60.655127,47.25783 48.466569,46.97284 36.27801,46.687849 10.3787,47.565399 4.7608013,46.349567 c -5.61790021,-1.215832 -9.9400346,-3.22412 -8.7273997,-6.851057 1.2126349,-3.626937 6.6709119,-6.828797 15.3338714,-8.185774 8.66296,-1.356978 26.501545,-1.410588 40.391508,-0.160497 z"
       id="path833"
       sodipodi:nodetypes="zzzzzzz" />
  </g>
</svg>
