<?xml version="1.0" encoding="UTF-8" standalone="no"?>
<svg
   xmlns:dc="http://purl.org/dc/elements/1.1/"
   xmlns:cc="http://creativecommons.org/ns#"
   xmlns:rdf="http://www.w3.org/1999/02/22-rdf-syntax-ns#"
   xmlns:svg="http://www.w3.org/2000/svg"
   xmlns="http://www.w3.org/2000/svg"
   xmlns:sodipodi="http://sodipodi.sourceforge.net/DTD/sodipodi-0.dtd"
   xmlns:inkscape="http://www.inkscape.org/namespaces/inkscape"
   width="60.035866mm"
   height="36.643375mm"
   viewBox="0 0 60.035866 36.643375"
   version="1.1"
   id="svg1416"
   inkscape:version="1.0.1 (3bc2e813f5, 2020-09-07)"
   sodipodi:docname="nav_button_active.svg">
  <defs
     id="defs1410" />
  <sodipodi:namedview
     id="base"
     pagecolor="#ffffff"
     bordercolor="#666666"
     borderopacity="1.0"
     inkscape:pageopacity="0.0"
     inkscape:pageshadow="2"
     inkscape:zoom="0.7"
     inkscape:cx="88.416978"
     inkscape:cy="-45.388448"
     inkscape:document-units="mm"
     inkscape:current-layer="layer1"
     inkscape:document-rotation="0"
     showgrid="false"
     inkscape:snap-global="false"
     inkscape:window-width="1481"
     inkscape:window-height="1008"
     inkscape:window-x="264"
     inkscape:window-y="31"
     inkscape:window-maximized="0" />
  <metadata
     id="metadata1413">
    <rdf:RDF>
      <cc:Work
         rdf:about="">
        <dc:format>image/svg+xml</dc:format>
        <dc:type
           rdf:resource="http://purl.org/dc/dcmitype/StillImage" />
        <dc:title />
      </cc:Work>
    </rdf:RDF>
  </metadata>
  <g
     inkscape:label="Ebene 1"
     inkscape:groupmode="layer"
     id="layer1"
     transform="translate(-37.691928,-72.612797)">
    <path
       style="fill:#07a61c;fill-opacity:1;stroke:none;stroke-width:0.273684px;stroke-linecap:butt;stroke-linejoin:miter;stroke-opacity:1"
       d="m 60.211765,72.727342 c 4.775994,-0.279232 9.579018,-0.0093 14.346409,0.394244 6.502877,0.550442 14.222263,-1.295351 19.387046,2.759699 2.659736,2.088261 2.883847,10.043463 3.48966,13.404248 0.7227,4.009175 0.166752,11.000987 -2.326445,14.192727 -3.74369,4.79257 -13.381931,4.70431 -19.387038,5.12515 -11.56307,0.81034 -20.3198,1.83283 -30.631523,-3.54818 -4.06866,-2.12317 -5.671018,-5.794744 -6.979335,-10.250299 -0.674733,-2.297855 -0.613538,-11.860407 0.775484,-13.798494 2.655411,-3.705069 6.17395,-5.307166 10.469,-6.702124 3.482314,-1.130993 7.207116,-1.363592 10.856742,-1.576971 z"
       id="path1983"
       sodipodi:nodetypes="sssssssssss" />
    <path
       style="fill:#09d224;fill-opacity:1;stroke:none;stroke-width:0.264583px;stroke-linecap:butt;stroke-linejoin:miter;stroke-opacity:1"
       d="m 60.476189,73.705355 c 4.655718,-0.267711 9.337786,-0.0089 13.985118,0.377978 6.339112,0.52773 13.864101,-1.241906 18.898812,2.645834 2.592763,2.002099 2.811223,9.62907 3.401786,12.851189 0.704499,3.843757 0.162556,10.547104 -2.267861,13.607144 -3.649413,4.59483 -13.044929,4.51021 -18.898808,4.91369 -11.271873,0.7769 -19.808079,1.75721 -29.860118,-3.40178 -3.966198,-2.03557 -5.528203,-5.555657 -6.803572,-9.827388 -0.657742,-2.203047 -0.598087,-11.371045 0.755954,-13.229167 2.58854,-3.552198 6.01847,-5.088193 10.205356,-6.425594 3.394618,-1.084329 7.025616,-1.307332 10.583333,-1.511906 z"
       id="path1979"
       sodipodi:nodetypes="sssssssssss" />
  </g>
</svg>
