<?xml version="1.0" encoding="UTF-8" standalone="no"?>
<svg
   xmlns:dc="http://purl.org/dc/elements/1.1/"
   xmlns:cc="http://creativecommons.org/ns#"
   xmlns:rdf="http://www.w3.org/1999/02/22-rdf-syntax-ns#"
   xmlns:svg="http://www.w3.org/2000/svg"
   xmlns="http://www.w3.org/2000/svg"
   xmlns:sodipodi="http://sodipodi.sourceforge.net/DTD/sodipodi-0.dtd"
   xmlns:inkscape="http://www.inkscape.org/namespaces/inkscape"
   width="188.27832mm"
   height="100.51598mm"
   viewBox="0 0 188.27832 100.51598"
   version="1.1"
   id="svg3514"
   inkscape:version="1.0.1 (3bc2e813f5, 2020-09-07)"
   sodipodi:docname="quest_card_validating.svg">
  <defs
     id="defs3508" />
  <sodipodi:namedview
     id="base"
     pagecolor="#ffffff"
     bordercolor="#666666"
     borderopacity="1.0"
     inkscape:pageopacity="0.0"
     inkscape:pageshadow="2"
     inkscape:zoom="0.49497475"
     inkscape:cx="352.21895"
     inkscape:cy="309.02747"
     inkscape:document-units="mm"
     inkscape:current-layer="layer1"
     inkscape:document-rotation="0"
     showgrid="false"
     inkscape:window-width="1481"
     inkscape:window-height="1008"
     inkscape:window-x="114"
     inkscape:window-y="0"
     inkscape:window-maximized="0"
     inkscape:snap-global="false" />
  <metadata
     id="metadata3511">
    <rdf:RDF>
      <cc:Work
         rdf:about="">
        <dc:format>image/svg+xml</dc:format>
        <dc:type
           rdf:resource="http://purl.org/dc/dcmitype/StillImage" />
        <dc:title />
      </cc:Work>
    </rdf:RDF>
  </metadata>
  <g
     inkscape:label="Ebene 1"
     inkscape:groupmode="layer"
     id="layer1"
     transform="translate(-7.6915523,2.9568612)">
    <path
       id="path4084"
       style="opacity:1;fill:#770f0f;fill-opacity:1;stroke:none;stroke-width:0.49152;stroke-linecap:round;stroke-miterlimit:4;stroke-dasharray:none;stroke-opacity:1"
       d="M 9.8731113,-0.222114 C 14.27241,-4.7887097 27.156184,-1.8503512 53.827883,-1.8503512 c 26.671701,0 61.953457,0.4070593 89.409447,0.4070593 27.45601,0 45.09038,-4.1129757 50.22913,1.2211779 5.13873,5.3341536 0.39214,22.355891 0.39214,35.456726 0,13.100837 1.17643,21.770577 1.17643,34.19298 0,12.422402 2.92315,21.024763 -1.56857,25.687302 -4.49174,4.662541 -18.85168,1.221179 -46.69981,1.221179 -27.84813,0 -47.966888,0 -74.900018,0 -26.93313,0 -57.594222,3.345417 -61.9935207,-1.221179 C 5.4738126,90.548299 9.0888179,78.457833 9.0888179,65.764057 V 29.942841 c 0,-12.286716 -3.6150053,-25.5983593 0.7842934,-30.164955 z"
       sodipodi:nodetypes="zzzzzzzzzzzzz" />
    <path
       id="rect3497"
       style="opacity:1;fill:#a96500;fill-opacity:1;stroke:none;stroke-width:0.465;stroke-linecap:round;stroke-miterlimit:4;stroke-dasharray:none;stroke-opacity:1"
       d="m 13.574041,2.9842827 c 4.240327,-4.2403269 16.658537,-1.5119048 42.366435,-1.5119048 25.707899,0 59.714724,0.3779762 86.178574,0.3779762 26.46385,0 43.461,-3.8191167 48.41405,1.1339286 4.95305,4.9530453 0.37798,20.7586343 0.37798,32.9234563 0,12.164822 1.13392,20.215138 1.13392,31.75 0,11.534861 2.81752,19.522609 -1.5119,23.852026 -4.32942,4.329417 -18.17045,1.133929 -45.01227,1.133929 -26.84183,0 -46.233567,0 -72.193449,0 -25.959882,0 -55.513013,3.106398 -59.75334,-1.133929 C 9.3337141,87.269438 12.818089,76.042798 12.818089,64.255952 V 30.994048 c 0,-11.408869 -3.4843749,-23.7694384 0.755952,-28.0097653 z"
       sodipodi:nodetypes="zzzzzzzzzzzzz" />
  </g>
</svg>
