<?xml version="1.0" encoding="UTF-8" standalone="no"?>
<svg
   xmlns:dc="http://purl.org/dc/elements/1.1/"
   xmlns:cc="http://creativecommons.org/ns#"
   xmlns:rdf="http://www.w3.org/1999/02/22-rdf-syntax-ns#"
   xmlns:svg="http://www.w3.org/2000/svg"
   xmlns="http://www.w3.org/2000/svg"
   xmlns:sodipodi="http://sodipodi.sourceforge.net/DTD/sodipodi-0.dtd"
   xmlns:inkscape="http://www.inkscape.org/namespaces/inkscape"
   width="37.990498mm"
   height="36.567776mm"
   viewBox="0 0 37.990497 36.567775"
   preserveAspectRatio="none"
   version="1.1"
   id="svg8"
   inkscape:version="1.0.1 (3bc2e813f5, 2020-09-07)"
   sodipodi:docname="quest_input.svg">
  <defs
     id="defs2" />
  <sodipodi:namedview
     id="base"
     pagecolor="#ffffff"
     bordercolor="#666666"
     borderopacity="1.0"
     inkscape:pageopacity="0.0"
     inkscape:pageshadow="2"
     inkscape:zoom="1.979899"
     inkscape:cx="38.928892"
     inkscape:cy="4.6516014"
     inkscape:document-units="mm"
     inkscape:current-layer="layer1"
     inkscape:document-rotation="0"
     showgrid="false"
     inkscape:snap-global="false"
     inkscape:window-width="1481"
     inkscape:window-height="1008"
     inkscape:window-x="98"
     inkscape:window-y="0"
     inkscape:window-maximized="0" />
  <metadata
     id="metadata5">
    <rdf:RDF>
      <cc:Work
         rdf:about="">
        <dc:format>image/svg+xml</dc:format>
        <dc:type
           rdf:resource="http://purl.org/dc/dcmitype/StillImage" />
        <dc:title />
      </cc:Work>
    </rdf:RDF>
  </metadata>
  <g
     inkscape:label="Ebene 1"
     inkscape:groupmode="layer"
     id="layer1"
     transform="translate(-44.984867,-66.525036)">
    <path
       style="fill:#961313;fill-opacity:1;stroke:none;stroke-width:0.283395px;stroke-linecap:butt;stroke-linejoin:miter;stroke-opacity:1"
       d="m 45.728783,88.53006 c 0.286822,4.333469 -1.2058,10.790549 0.996754,12.99054 2.520568,2.51764 7.020965,1.16759 10.566728,1.36056 4.849642,0.26396 9.713779,-0.10932 14.567493,-0.28143 2.928583,-0.10385 6.528391,1.43504 8.779663,-0.45319 2.28073,-1.91294 1.726362,-5.7532 2.05329,-8.723287 0.610422,-5.545574 0.08403,-11.165082 -0.198607,-16.737332 -0.140853,-2.776993 1.132213,-6.268527 -0.745496,-8.308008 -1.957414,-2.126052 -5.651977,-1.17942 -8.520228,-1.437713 -4.990834,-0.449439 -10.034673,-0.567616 -15.031152,-0.187004 -3.965723,0.302094 -8.932374,-0.848622 -11.77221,1.953989 -1.80548,1.781815 -1.220996,4.967645 -1.381708,7.507617 -0.259622,4.103211 0.413944,8.212828 0.685473,12.315258 z"
       id="path836"
       sodipodi:nodetypes="asaaaaaaaaaaa" />
    <path
       style="fill:#480909;fill-opacity:1;stroke:none;stroke-width:0.264583px;stroke-linecap:butt;stroke-linejoin:miter;stroke-opacity:1"
       d="m 47.151663,88.472137 c 0.268661,4.032577 -1.129453,10.041314 0.933643,12.088553 2.360974,2.34282 6.576422,1.08651 9.89768,1.26609 4.542579,0.24563 9.098736,-0.10173 13.64513,-0.26189 2.743155,-0.0966 6.115036,1.3354 8.223765,-0.42172 2.136322,-1.780125 1.617055,-5.353735 1.923283,-8.117596 0.571772,-5.16052 0.07871,-10.389841 -0.186032,-15.575186 -0.131935,-2.584174 1.060525,-5.833275 -0.698294,-7.731146 -1.833477,-1.978431 -5.294113,-1.097528 -7.980757,-1.337887 -4.674831,-0.418232 -9.399312,-0.528204 -14.079432,-0.174019 -3.714627,0.281118 -8.366807,-0.789699 -11.026834,1.818315 -1.691164,1.658096 -1.143687,4.62272 -1.294223,6.98633 -0.243184,3.818307 0.387734,7.642576 0.642071,11.460156 z"
       id="path833"
       sodipodi:nodetypes="asaaaaaaaaaaa" />
  </g>
</svg>
