<?xml version="1.0" encoding="UTF-8" standalone="no"?>
<svg
   xmlns:osb="http://www.openswatchbook.org/uri/2009/osb"
   xmlns:dc="http://purl.org/dc/elements/1.1/"
   xmlns:cc="http://creativecommons.org/ns#"
   xmlns:rdf="http://www.w3.org/1999/02/22-rdf-syntax-ns#"
   xmlns:svg="http://www.w3.org/2000/svg"
   xmlns="http://www.w3.org/2000/svg"
   xmlns:xlink="http://www.w3.org/1999/xlink"
   xmlns:sodipodi="http://sodipodi.sourceforge.net/DTD/sodipodi-0.dtd"
   xmlns:inkscape="http://www.inkscape.org/namespaces/inkscape"
   width="200.6675mm"
   height="97.467613mm"
   viewBox="0 0 200.6675 97.467613"
   version="1.1"
   id="svg8"
   inkscape:version="1.0.1 (3bc2e813f5, 2020-09-07)"
   sodipodi:docname="card_pack.svg">
  <defs
     id="defs2">
    <pattern
       inkscape:collect="always"
       xlink:href="#pattern3162"
       id="pattern3288"
       patternTransform="matrix(0.9485872,0,0,12.984797,-35.276852,-26.71631)" />
    <pattern
       inkscape:collect="always"
       xlink:href="#pattern3160"
       id="pattern3285"
       patternTransform="matrix(0.94769967,0,0,12.984782,-35.22296,162.03981)" />
    <pattern
       inkscape:collect="always"
       xlink:href="#pattern3056"
       id="pattern3162"
       patternTransform="matrix(0.6892804,0,0,4.322528,5.649759,197.18676)" />
    <pattern
       inkscape:collect="always"
       xlink:href="#pattern2929-5"
       id="pattern3160"
       patternTransform="matrix(0.68863548,0,0,4.322528,5.688912,260.63171)" />
    <linearGradient
       inkscape:collect="always"
       id="linearGradient2995">
      <stop
         style="stop-color:#ffffff;stop-opacity:1;"
         offset="0"
         id="stop2991" />
      <stop
         style="stop-color:#ffffff;stop-opacity:0;"
         offset="1"
         id="stop2993" />
    </linearGradient>
    <linearGradient
       inkscape:collect="always"
       id="linearGradient2979">
      <stop
         style="stop-color:#ffffff;stop-opacity:0.56904762"
         offset="0"
         id="stop2975" />
      <stop
         style="stop-color:#ffffff;stop-opacity:0;"
         offset="1"
         id="stop2977" />
    </linearGradient>
    <linearGradient
       inkscape:collect="always"
       id="linearGradient2951">
      <stop
         style="stop-color:#000000;stop-opacity:1;"
         offset="0"
         id="stop2947" />
      <stop
         style="stop-color:#000000;stop-opacity:0;"
         offset="1"
         id="stop2949" />
    </linearGradient>
    <linearGradient
       id="linearGradient2887"
       osb:paint="solid">
      <stop
         style="stop-color:#ffd34a;stop-opacity:1;"
         offset="0"
         id="stop2885" />
    </linearGradient>
    <linearGradient
       id="linearGradient2881"
       osb:paint="solid">
      <stop
         style="stop-color:#ffff00;stop-opacity:1;"
         offset="0"
         id="stop2879" />
    </linearGradient>
    <linearGradient
       id="linearGradient2873">
      <stop
         style="stop-color:#ffff00;stop-opacity:1;"
         offset="0"
         id="stop2871" />
    </linearGradient>
    <mask
       maskUnits="userSpaceOnUse"
       id="mask2797">
      <path
         style="fill:#bf953f;fill-opacity:1;stroke:#000000;stroke-width:0.264583px;stroke-linecap:butt;stroke-linejoin:miter;stroke-opacity:1"
         d="m 11.800693,127.89826 1.11779,-3.84448 c 0,0 1.635717,-0.68757 2.21658,-1.86056 0.58086,-1.17298 5.099364,-15.64316 8.134274,-26.081298 3.034912,-10.438139 6.86155,-24.909171 7.118027,-26.376784 0.256477,-1.467609 -0.873444,-2.758986 -0.873444,-2.758986 l 1.117789,-3.844474 33.876709,9.849726 33.876704,9.849725 -1.11779,3.844474 c 0,0 -1.462135,0.344412 -2.216579,1.860555 -0.754442,1.516144 -5.099357,15.643172 -8.134269,26.081312 -3.034911,10.43814 -6.985204,24.92592 -7.118022,26.37678 -0.132819,1.45086 0.873438,2.75898 0.873438,2.75898 l -1.11779,3.84448 -33.876711,-9.84973 z"
         id="path2799"
         sodipodi:nodetypes="cczzzccccczzzcccc" />
    </mask>
    <mask
       maskUnits="userSpaceOnUse"
       id="mask2803">
      <path
         style="fill:#bf953f;fill-opacity:1;stroke:#000000;stroke-width:0.264583px;stroke-linecap:butt;stroke-linejoin:miter;stroke-opacity:1"
         d="m 11.380888,127.9363 1.130401,-3.84079 c 0,0 1.637964,-0.6822 2.222673,-1.85327 0.584707,-1.17107 5.150675,-15.62635 8.219826,-26.054469 3.069151,-10.428123 6.94326,-24.886519 7.204553,-26.353282 0.261291,-1.46676 -0.864385,-2.761837 -0.864385,-2.761837 l 1.1304,-3.840785 33.844201,9.96085 33.844196,9.96085 -1.1304,3.840785 c 0,0 -1.463258,0.339611 -2.222674,1.853271 -0.759413,1.51366 -5.150668,15.626347 -8.219819,26.054477 -3.069152,10.42812 -7.066969,24.90286 -7.204549,26.35327 -0.137579,1.45042 0.864379,2.76184 0.864379,2.76184 l -1.1304,3.84079 -33.844204,-9.96085 z"
         id="path2805"
         sodipodi:nodetypes="cczzzccccczzzcccc" />
    </mask>
    <pattern
       inkscape:collect="always"
       xlink:href="#pattern2917-4"
       id="pattern3056"
       patternTransform="matrix(0.6892804,0,0,4.322528,5.2717828,119.70164)" />
    <mask
       maskUnits="userSpaceOnUse"
       id="mask2797-1">
      <path
         style="fill:#bf953f;fill-opacity:1;stroke:#000000;stroke-width:0.264583px;stroke-linecap:butt;stroke-linejoin:miter;stroke-opacity:1"
         d="m 11.800693,127.89826 1.11779,-3.84448 c 0,0 1.635717,-0.68757 2.21658,-1.86056 0.58086,-1.17298 5.099364,-15.64316 8.134274,-26.081298 3.034912,-10.438139 6.86155,-24.909171 7.118027,-26.376784 0.256477,-1.467609 -0.873444,-2.758986 -0.873444,-2.758986 l 1.117789,-3.844474 33.876709,9.849726 33.876704,9.849725 -1.11779,3.844474 c 0,0 -1.462135,0.344412 -2.216579,1.860555 -0.754442,1.516144 -5.099357,15.643172 -8.134269,26.081312 -3.034911,10.43814 -6.985204,24.92592 -7.118022,26.37678 -0.132819,1.45086 0.873438,2.75898 0.873438,2.75898 l -1.11779,3.84448 -33.876711,-9.84973 z"
         id="path2799-6"
         sodipodi:nodetypes="cczzzccccczzzcccc" />
    </mask>
    <mask
       maskUnits="userSpaceOnUse"
       id="mask2803-2">
      <path
         style="fill:#bf953f;fill-opacity:1;stroke:#000000;stroke-width:0.264583px;stroke-linecap:butt;stroke-linejoin:miter;stroke-opacity:1"
         d="m 11.380888,127.9363 1.130401,-3.84079 c 0,0 1.637964,-0.6822 2.222673,-1.85327 0.584707,-1.17107 5.150675,-15.62635 8.219826,-26.054469 3.069151,-10.428123 6.94326,-24.886519 7.204553,-26.353282 0.261291,-1.46676 -0.864385,-2.761837 -0.864385,-2.761837 l 1.1304,-3.840785 33.844201,9.96085 33.844196,9.96085 -1.1304,3.840785 c 0,0 -1.463258,0.339611 -2.222674,1.853271 -0.759413,1.51366 -5.150668,15.626347 -8.219819,26.054477 -3.069152,10.42812 -7.066969,24.90286 -7.204549,26.35327 -0.137579,1.45042 0.864379,2.76184 0.864379,2.76184 l -1.1304,3.84079 -33.844204,-9.96085 z"
         id="path2805-4"
         sodipodi:nodetypes="cczzzccccczzzcccc" />
    </mask>
    <pattern
       inkscape:collect="always"
       xlink:href="#Strips1_1-6"
       id="pattern2917-4"
       patternTransform="matrix(0.68928041,0,0,4.3225281,5.1919851,40.697541)" />
    <pattern
       inkscape:collect="always"
       patternUnits="userSpaceOnUse"
       width="2"
       height="1"
       patternTransform="translate(0,0) scale(10,10)"
       id="Strips1_1-6"
       inkscape:stockid="Stripes 1:1"
       inkscape:isstock="true">
      <rect
         style="fill:black;stroke:none"
         x="0"
         y="-0.5"
         width="1"
         height="2"
         id="rect1815-2" />
    </pattern>
    <pattern
       inkscape:collect="always"
       xlink:href="#pattern2917-4"
       id="pattern2929-5"
       patternTransform="matrix(0.68863548,0,0,4.322528,5.3109358,183.14659)" />
    <pattern
       inkscape:collect="always"
       xlink:href="#Strips1_1-6"
       id="pattern3023"
       patternTransform="matrix(0.68928041,0,0,4.3225281,5.1919851,40.697541)" />
    <linearGradient
       inkscape:collect="always"
       xlink:href="#linearGradient2951"
       id="linearGradient3240"
       gradientUnits="userSpaceOnUse"
       gradientTransform="matrix(1.3736237,0,0,2.9751158,-49.27632,82.76789)"
       x1="87.46328"
       y1="38.165825"
       x2="87.46328"
       y2="34.200603" />
    <linearGradient
       inkscape:collect="always"
       xlink:href="#linearGradient2979"
       id="linearGradient3242"
       gradientUnits="userSpaceOnUse"
       gradientTransform="matrix(1.3761993,5.1925566e-6,-2.4019209e-6,2.9751158,42.419104,147.21165)"
       x1="-82.385056"
       y1="-56.072964"
       x2="-82.385056"
       y2="-60.038246" />
    <linearGradient
       inkscape:collect="always"
       xlink:href="#linearGradient2951"
       id="linearGradient3244"
       gradientUnits="userSpaceOnUse"
       gradientTransform="matrix(2.6701399,0,0,2.1632983,-335.59118,36.85293)"
       x1="87.46328"
       y1="38.165825"
       x2="87.46328"
       y2="34.200603" />
    <linearGradient
       inkscape:collect="always"
       xlink:href="#linearGradient2995"
       id="linearGradient3246"
       gradientUnits="userSpaceOnUse"
       gradientTransform="matrix(3.1753759,0,0,1.3761993,-158.57383,42.42205)"
       x1="85.793518"
       y1="-47.039433"
       x2="85.774246"
       y2="-53.272514" />
    <mask
       maskUnits="userSpaceOnUse"
       id="mask3349">
      <path
         style="fill:#ffd34a;fill-opacity:1;stroke:none;stroke-width:0.535371px;stroke-linecap:butt;stroke-linejoin:miter;stroke-opacity:1"
         d="m -208.22701,22.31359 h 11.91142 c 0,0 3.32293,1.89738 7.1564,2.21429 3.83347,0.31691 48.92524,0.72824 81.26594,0.72824 32.340671,0 76.86018,-0.50328 81.26591,-0.72824 4.40573,-0.22496 7.15641,-2.2143 7.15641,-2.2143 h 11.91141 v 48.551731 48.551719 h -11.91141 c 0,0 -2.1984,-1.79985 -7.15641,-2.2143 -4.958,-0.41444 -48.925239,-0.72822 -81.26594,-0.72822 -32.34067,0 -77.01075,0.3463 -81.26591,0.72824 -4.25516,0.38194 -7.1564,2.21429 -7.1564,2.21429 h -11.91142 V 70.865321 Z"
         id="path3351"
         sodipodi:nodetypes="cczzzccccczzzcccc" />
    </mask>
    <mask
       maskUnits="userSpaceOnUse"
       id="mask3355">
      <path
         style="fill:#ffd34a;fill-opacity:1;stroke:none;stroke-width:0.535371px;stroke-linecap:butt;stroke-linejoin:miter;stroke-opacity:1"
         d="m 208.22701,-22.31359 h -11.91142 c 0,0 -3.32293,-1.89738 -7.1564,-2.21429 -3.83347,-0.31691 -48.92524,-0.72824 -81.26594,-0.72824 -32.340671,0 -76.86018,0.50328 -81.26591,0.72824 -4.40573,0.22496 -7.15641,2.2143 -7.15641,2.2143 H 7.55952 v -48.551731 -48.551719 h 11.91141 c 0,0 2.1984,1.79985 7.15641,2.2143 4.958,0.41444 48.925239,0.72822 81.26594,0.72822 32.34067,0 77.01075,-0.3463 81.26591,-0.72824 4.25516,-0.38194 7.1564,-2.21429 7.1564,-2.21429 h 11.91142 v 48.551719 z"
         id="path3357"
         sodipodi:nodetypes="cczzzccccczzzcccc" />
    </mask>
  </defs>
  <sodipodi:namedview
     id="base"
     pagecolor="#ffffff"
     bordercolor="#666666"
     borderopacity="1.0"
     inkscape:pageopacity="0.0"
     inkscape:pageshadow="2"
     inkscape:zoom="0.49497475"
     inkscape:cx="321.26113"
     inkscape:cy="174.79353"
     inkscape:document-units="mm"
     inkscape:current-layer="layer1"
     inkscape:document-rotation="0"
     showgrid="false"
     inkscape:snap-bbox="true"
     inkscape:bbox-paths="true"
     inkscape:bbox-nodes="true"
     inkscape:snap-bbox-edge-midpoints="true"
     inkscape:snap-bbox-midpoints="true"
     inkscape:object-paths="true"
     inkscape:snap-intersection-paths="true"
     inkscape:snap-smooth-nodes="true"
     inkscape:snap-midpoints="true"
     inkscape:snap-object-midpoints="true"
     inkscape:snap-center="true"
     inkscape:snap-text-baseline="true"
     inkscape:snap-page="true"
     inkscape:snap-global="true"
     inkscape:window-width="1481"
     inkscape:window-height="1008"
     inkscape:window-x="76"
     inkscape:window-y="0"
     inkscape:window-maximized="0" />
  <metadata
     id="metadata5">
    <rdf:RDF>
      <cc:Work
         rdf:about="">
        <dc:format>image/svg+xml</dc:format>
        <dc:type
           rdf:resource="http://purl.org/dc/dcmitype/StillImage" />
        <dc:title></dc:title>
      </cc:Work>
    </rdf:RDF>
  </metadata>
  <g
     inkscape:label="Ebene 1"
     inkscape:groupmode="layer"
     id="layer1"
     transform="translate(-7.5595197,-22.131524)">
    <g
       id="g3396">
      <path
         style="fill:#ffd34a;fill-opacity:1;stroke:none;stroke-width:0.535371px;stroke-linecap:butt;stroke-linejoin:miter;stroke-opacity:1"
         d="m 208.22701,22.31359 h -11.91142 c 0,0 -3.32293,1.89738 -7.1564,2.21429 -3.83347,0.31691 -48.92524,0.72824 -81.26594,0.72824 -32.34067,0 -76.86018,-0.50328 -81.26591,-0.72824 -4.40573,-0.22496 -7.15641,-2.2143 -7.15641,-2.2143 H 7.55952 v 48.55173 48.55172 h 11.91141 c 0,0 2.1984,-1.79985 7.15641,-2.2143 4.958,-0.41444 48.92524,-0.72822 81.26594,-0.72822 32.34067,0 77.01075,0.3463 81.26591,0.72824 4.25516,0.38194 7.1564,2.21429 7.1564,2.21429 h 11.91142 V 70.86532 Z"
         id="path3214"
         sodipodi:nodetypes="cczzzccccczzzcccc" />
      <path
         style="fill:#796e23;fill-opacity:1;stroke:none;stroke-width:0.980732px;stroke-linecap:butt;stroke-linejoin:miter;stroke-opacity:1"
         d="m 92.97797,77.60185 c 5.44852,3.92513 12.42796,7.199846 17.94093,9.163048 1.96557,0.699974 3.25355,-4.029575 5.24694,-3.413283 1.1936,0.369008 0.67504,2.4729 1.44007,3.46027 2.05465,2.649077 5.24902,4.183863 8.03222,6.052774 3.63513,2.441034 7.00183,7.615841 11.28766,6.71894 2.92812,-0.612624 5.47912,-4.316697 5.22407,-7.297354 -0.23656,-2.765118 -3.75082,-4.124492 -5.92604,-5.847926 -4.85359,-3.845536 -10.55327,-6.485329 -15.72672,-9.888369 -1.8591,-1.22292 -3.67052,-2.51681 -5.50077,-3.78244 -6.26308,-4.3309 -12.61772,-8.53471 -18.75495,-13.04218 -4.05613,-2.97899 -8.02671,-6.07595 -11.9334,-9.2484 -2.81343,-2.28465 -8.28223,-7.04412 -8.28223,-7.04412 0,0 -0.86944,3.84992 -0.0625,8.51898 0.70883,4.10133 2.39326,9.76239 5.06364,13.91269 3.02128,4.69562 7.42058,8.47362 11.95105,11.73737 z"
         id="path3248"
         sodipodi:nodetypes="asaaaaaaaaaacsaa" />
      <rect
         style="fill:#ffffff;fill-opacity:0.57377;stroke-width:1.765;stroke-linecap:round"
         id="rect3218"
         width="115.09375"
         height="12.851191"
         x="0.73729825"
         y="101.44885"
         transform="matrix(-0.83062441,1.3214757,2.8568124,0.38422193,-133.1834,-42.42205)"
         mask="url(#mask2797-1)" />
      <rect
         style="fill:#ffffff;fill-opacity:0.57377;stroke-width:1.765;stroke-linecap:round"
         id="rect3220"
         width="114.71577"
         height="5.2916665"
         x="-1.2707471"
         y="92.268768"
         transform="matrix(-0.83999554,1.3202076,2.854071,0.38855673,-130.03474,-42.42205)"
         mask="url(#mask2803-2)" />
      <rect
         style="opacity:0.209524;mix-blend-mode:darken;fill:url(#linearGradient3240);fill-opacity:1;stroke:none;stroke-width:1.84656;stroke-linecap:round"
         id="rect3222"
         width="97.103455"
         height="11.796989"
         x="22.313581"
         y="184.5186"
         transform="matrix(0,1,1,0,0,0)" />
      <rect
         style="opacity:0.271429;mix-blend-mode:darken;fill:url(#pattern3288);fill-opacity:1;stroke-width:1.85723;stroke-linecap:round"
         id="rect3224"
         width="97.28553"
         height="11.91145"
         x="22.31358"
         y="7.5595198"
         transform="matrix(0,1,1,0,0,0)" />
      <rect
         style="opacity:0.133333;mix-blend-mode:darken;fill:url(#pattern3285);fill-opacity:1;stroke-width:1.85637;stroke-linecap:round"
         id="rect3226"
         width="97.194496"
         height="11.911438"
         x="22.313581"
         y="196.31558"
         transform="matrix(0,1,1,0,0,0)" />
      <rect
         style="opacity:0.592857;mix-blend-mode:lighten;fill:url(#linearGradient3242);fill-opacity:1;stroke:none;stroke-width:1.84829;stroke-linecap:round"
         id="rect3228"
         width="97.28553"
         height="11.796989"
         x="-119.59911"
         y="-31.268204"
         transform="matrix(3.7731138e-6,-1,-1,-8.0733694e-7,0,0)" />
      <rect
         style="opacity:0.178571;mix-blend-mode:darken;fill:url(#linearGradient3244);fill-opacity:1;stroke:none;stroke-width:2.19536;stroke-linecap:round"
         id="rect3230"
         width="188.75609"
         height="8.577961"
         x="-196.43004"
         y="110.83907"
         transform="matrix(-1.0006062,0,0,1.0000007,-0.1190824,-7.5600785e-5)"
         mask="url(#mask3349)" />
      <rect
         style="opacity:0.659524;mix-blend-mode:lighten;fill:url(#linearGradient3246);fill-opacity:1;stroke:none;stroke-width:2.19603;stroke-linecap:round"
         id="rect3232"
         width="188.8707"
         height="8.577961"
         x="19.356323"
         y="-30.891554"
         transform="matrix(0.99939298,0,0,-1,0.12639697,0)"
         mask="url(#mask3355)" />
      <rect
         style="opacity:0.630952;fill:#000000;fill-opacity:0.251366;stroke:none;stroke-width:3.57139;stroke-linecap:round"
         id="rect3234"
         width="97.103455"
         height="11.911386"
         x="22.313597"
         y="196.3156"
         transform="matrix(0,1,1,0,0,0)" />
      <rect
         style="opacity:0.659524;fill:#ffffff;fill-opacity:0.404372;stroke:none;stroke-width:3.57139;stroke-linecap:round"
         id="rect3236"
         width="97.103455"
         height="11.911409"
         x="22.31358"
         y="7.5595198"
         transform="matrix(0,1,1,0,0,0)" />
    </g>
  </g>
</svg>
