<?xml version="1.0" encoding="UTF-8" standalone="no"?>
<svg
   xmlns:dc="http://purl.org/dc/elements/1.1/"
   xmlns:cc="http://creativecommons.org/ns#"
   xmlns:rdf="http://www.w3.org/1999/02/22-rdf-syntax-ns#"
   xmlns:svg="http://www.w3.org/2000/svg"
   xmlns="http://www.w3.org/2000/svg"
   xmlns:sodipodi="http://sodipodi.sourceforge.net/DTD/sodipodi-0.dtd"
   xmlns:inkscape="http://www.inkscape.org/namespaces/inkscape"
   width="44.540722mm"
   height="17.827999mm"
   viewBox="0 0 44.540721 17.828"
   preserveAspectRatio="none"
   version="1.1"
   id="svg8"
   inkscape:version="1.0.1 (3bc2e813f5, 2020-09-07)"
   sodipodi:docname="stats_bar_block.svg">
  <defs
     id="defs2" />
  <sodipodi:namedview
     id="base"
     pagecolor="#ffffff"
     bordercolor="#666666"
     borderopacity="1.0"
     inkscape:pageopacity="0.0"
     inkscape:pageshadow="2"
     inkscape:zoom="0.9899495"
     inkscape:cx="-87.058813"
     inkscape:cy="-81.666402"
     inkscape:document-units="mm"
     inkscape:current-layer="layer1"
     inkscape:document-rotation="0"
     showgrid="false"
     inkscape:snap-global="false"
     inkscape:window-width="1481"
     inkscape:window-height="1008"
     inkscape:window-x="98"
     inkscape:window-y="0"
     inkscape:window-maximized="0" />
  <metadata
     id="metadata5">
    <rdf:RDF>
      <cc:Work
         rdf:about="">
        <dc:format>image/svg+xml</dc:format>
        <dc:type
           rdf:resource="http://purl.org/dc/dcmitype/StillImage" />
        <dc:title />
      </cc:Work>
    </rdf:RDF>
  </metadata>
  <g
     inkscape:label="Ebene 1"
     inkscape:groupmode="layer"
     id="layer1"
     transform="translate(-42.573041,-64.634291)">
    <path
       style="fill:#0b542e;fill-opacity:0;stroke:none;stroke-width:0.38819px;stroke-linecap:butt;stroke-linejoin:miter;stroke-opacity:1"
       d="M 85.834247,80.275854 C 88.044646,77.603295 87.146016,68.469702 85.001281,66.324276 82.856547,64.17885 49.41693,64.086292 45.533146,65.98861 c -3.883783,1.902299 -3.441863,11.369396 -1.543825,14.384728 1.898039,3.015314 39.634527,2.575074 41.844926,-0.09755 z"
       id="path832"
       sodipodi:nodetypes="zzzzz" />
    <path
       style="fill:#0b542e;fill-opacity:1;stroke:none;stroke-width:0.365771px;stroke-linecap:butt;stroke-linejoin:miter;stroke-opacity:1"
       d="m 85.834247,79.52125 c 2.210399,-2.372759 1.311769,-10.481783 -0.832966,-12.386545 -2.144734,-1.904762 -35.584351,-1.98694 -39.468135,-0.298027 -3.883783,1.688913 -3.441863,10.094041 -1.543825,12.771117 1.898039,2.677076 39.634527,2.286214 41.844926,-0.08655 z"
       id="path834"
       sodipodi:nodetypes="zzzzz" />
    <path
       style="fill:#139653;fill-opacity:1;stroke:none;stroke-width:0.283395px;stroke-linecap:butt;stroke-linejoin:miter;stroke-opacity:1"
       d="m 83.830452,77.621364 c 1.978285,-1.591477 1.17402,-7.03043 -0.745496,-8.308008 -1.919516,-1.277578 -31.847642,-1.332697 -35.32359,-0.199895 -3.475948,1.132802 -3.080434,6.77036 -1.381708,8.565951 1.698726,1.795591 35.472509,1.533429 37.450794,-0.05805 z"
       id="path836"
       sodipodi:nodetypes="zzzzz" />
  </g>
</svg>
