<?xml version="1.0" encoding="UTF-8" standalone="no"?>
<svg
   xmlns:dc="http://purl.org/dc/elements/1.1/"
   xmlns:cc="http://creativecommons.org/ns#"
   xmlns:rdf="http://www.w3.org/1999/02/22-rdf-syntax-ns#"
   xmlns:svg="http://www.w3.org/2000/svg"
   xmlns="http://www.w3.org/2000/svg"
   xmlns:sodipodi="http://sodipodi.sourceforge.net/DTD/sodipodi-0.dtd"
   xmlns:inkscape="http://www.inkscape.org/namespaces/inkscape"
   width="297.15317mm"
   height="6.7715092mm"
   viewBox="0 0 297.15317 6.7715089"
   preserveAspectRatio="none"
   version="1.1"
   id="svg3514"
   inkscape:version="1.0.1 (3bc2e813f5, 2020-09-07)"
   sodipodi:docname="stats_base.svg">
  <defs
     id="defs3508" />
  <sodipodi:namedview
     id="base"
     pagecolor="#ffffff"
     bordercolor="#666666"
     borderopacity="1.0"
     inkscape:pageopacity="0.0"
     inkscape:pageshadow="2"
     inkscape:zoom="7.9195959"
     inkscape:cx="26.143608"
     inkscape:cy="42.140817"
     inkscape:document-units="mm"
     inkscape:current-layer="layer1"
     inkscape:document-rotation="0"
     showgrid="false"
     inkscape:window-width="1481"
     inkscape:window-height="1008"
     inkscape:window-x="114"
     inkscape:window-y="0"
     inkscape:window-maximized="0"
     inkscape:snap-global="false" />
  <metadata
     id="metadata3511">
    <rdf:RDF>
      <cc:Work
         rdf:about="">
        <dc:format>image/svg+xml</dc:format>
        <dc:type
           rdf:resource="http://purl.org/dc/dcmitype/StillImage" />
        <dc:title />
      </cc:Work>
    </rdf:RDF>
  </metadata>
  <g
     inkscape:label="Ebene 1"
     inkscape:groupmode="layer"
     id="layer1"
     transform="translate(-6.4703503,-81.737564)">
    <path
       id="path4084"
       style="opacity:1;fill:#770f0f;fill-opacity:1;stroke:none;stroke-width:0.159656;stroke-linecap:round;stroke-miterlimit:4;stroke-dasharray:none;stroke-opacity:1"
       d="M 7.4108013,81.909599 C 14.31441,81.602563 38.236464,81.800124 80.09108,81.800124 c 41.85462,0 97.22057,0.02736 140.30595,0.02736 43.0854,0 79.21273,-0.02985 81.56249,-0.01238 2.34975,0.01746 1.52293,1.084757 1.52293,1.965596 0,0.88084 -0.13414,1.948104 -0.13414,2.783328 0,0.835225 0.4098,1.971551 -1.05805,1.944574 -1.46785,-0.02698 -32.65409,-0.106878 -76.35482,-0.106878 H 108.39842 C 66.133555,88.40172 8.5502726,88.579397 7.4108013,88.31961 6.2713301,88.059823 7.2771617,87.400121 6.709214,86.346199 c -0.5679477,-1.053922 0.033409,-1.849621 0.2004521,-2.70913 0.1670435,-0.85951 -0.5438419,-1.467683 0.5011352,-1.727473 1.0449772,-0.25979 0,3e-6 0,3e-6 z"
       sodipodi:nodetypes="zzzzzzzzzzzzzz" />
  </g>
</svg>
